<?xml version="1.0" encoding="UTF-8"?>
<svg width="360px" height="300px" viewBox="0 0 360 300" version="1.1" xmlns="http://www.w3.org/2000/svg" xmlns:xlink="http://www.w3.org/1999/xlink">
    <!-- Generator: Sketch 43.2 (39069) - http://www.bohemiancoding.com/sketch -->
    <title>JTLY_Vertical_Light_No_BG</title>
    <desc>Created with Sketch.</desc>
    <defs>
        <linearGradient x1="12.5998752%" y1="3.83453609%" x2="82.1624753%" y2="108.044801%" id="linearGradient-1">
            <stop stop-color="#00E6BE" offset="0%"></stop>
            <stop stop-color="#007EDE" offset="100%"></stop>
        </linearGradient>
        <linearGradient x1="50%" y1="0%" x2="0%" y2="68.5558564%" id="linearGradient-2">
            <stop stop-color="#005266" stop-opacity="0.5" offset="0%"></stop>
            <stop stop-color="#0393BD" stop-opacity="0" offset="100%"></stop>
        </linearGradient>
        <linearGradient x1="1.1818165%" y1="66.2670123%" x2="88.272602%" y2="38.6098509%" id="linearGradient-3">
            <stop stop-color="#005266" offset="0%"></stop>
            <stop stop-color="#0992A9" stop-opacity="0.36" offset="62%"></stop>
            <stop stop-color="#0EB5CF" stop-opacity="0" offset="100%"></stop>
        </linearGradient>
        <linearGradient x1="21.5737906%" y1="-1.25933181%" x2="216.150078%" y2="308.028099%" id="linearGradient-4">
            <stop stop-color="#00E6BE" offset="0%"></stop>
            <stop stop-color="#007EDE" offset="100%"></stop>
        </linearGradient>
        <linearGradient x1="21.5737906%" y1="-1.25933181%" x2="164.193696%" y2="239.223903%" id="linearGradient-5">
            <stop stop-color="#00E6BE" offset="0%"></stop>
            <stop stop-color="#007EDE" offset="100%"></stop>
        </linearGradient>
    </defs>
    <g id="Page-1" stroke="none" stroke-width="1" fill="none" fill-rule="evenodd">
        <g id="Asset-2" transform="translate(12.000000, 186.000000)" fill-rule="nonzero" fill="#FFFFFF">
            <g id="Horizontal">
                <g id="_plain_Shadowed_Horizontal_DarkBg-link" transform="translate(0.370000, 0.280000)">
                    <g id="_plain_Shadowed_Horizontal_DarkBg">
                        <path d="M90.77,19.83 C75.19,19.83 63.88,31.23 63.88,46.93 C63.88,62.93 74.98,74.04 90.88,74.04 C106.78,74.04 118,62.9 118,46.94 C118,31.23 106.54,19.83 90.77,19.83 Z M90.88,62.23 C81.17,62.23 76.75,54.3 76.75,46.94 C76.75,39.29 81.6,31.54 90.88,31.54 C99.73,31.54 105.01,39.37 105.01,46.94 C105,54.3 100.59,62.23 90.88,62.23 L90.88,62.23 Z" id="Shape"></path>
                        <path d="M133.45,0.08 C129.79,0.08 125.85,2.43 125.85,7.6 C125.85,12.77 129.79,15.11 133.45,15.11 C137.11,15.11 141,12.76 141,7.6 C141,2.44 137.11,0.08 133.45,0.08 Z" id="Shape"></path>
                        <rect id="Rectangle-path" x="127.02" y="19.83" width="12.87" height="54.21"></rect>
                        <rect id="Rectangle-path" x="254.22" y="0.08" width="12.77" height="73.99"></rect>
                        <path d="M227.33,7.58 L214.46,7.58 L214.46,55.01 C214.46,67.09 220.86,74.01 232.04,74.01 L233.12,74.01 L233.76,74.01 L234,74.01 L234,74.07 L241.7,74.07 L241.7,62.44 L234,62.44 C229.71,62.44 227.25,59.75 227.25,55.06 L227.25,30.91 L241.7,30.91 L241.7,19.83 L227.33,19.83 L227.33,7.58 Z" id="Shape"></path>
                        <path d="M178.38,19.83 C162.8,19.83 151.48,31.22 151.48,46.93 L151.48,74 L164.35,74 L164.35,46.94 C164.35,39.29 169.2,31.54 178.48,31.54 C187.33,31.54 192.61,39.37 192.61,46.94 L192.61,74.07 L205.48,74.07 L205.48,46.94 L205.59,46.94 L205.59,46.41 C205.33,31 193.89,19.83 178.38,19.83 Z" id="Shape"></path>
                        <path d="M41.54,0.08 L41.54,46 L41.4,46 L41.4,46.54 L41.4,47 C41.4,54.37 36.98,62.29 27.27,62.29 C17.56,62.29 13.14,54.36 13.14,47 L13.14,46.54 L13.14,46 L0.32,46 L0.32,46.51 L0.32,47 C0.32,63 11.42,74.11 27.32,74.11 C43.22,74.11 54.4,62.92 54.4,47 L54.4,46.08 L54.4,0.08 L41.54,0.08 Z" id="Shape"></path>
                        <path d="M331.26,19.83 L318.4,19.83 L318.4,46.83 C318.4,54.48 313.54,62.23 304.27,62.23 C295.42,62.23 290.13,54.4 290.13,46.83 L290.13,19.83 L277.13,19.83 L277.13,46.83 C277.13,62.54 288.58,73.94 304.34,73.94 C309.238891,74.0081773 314.068736,72.7800168 318.34,70.38 L318.34,70.38 L318.34,72.65 C318.34,80.3 313.48,88.04 304.21,88.04 C299.189794,88.0119127 294.586409,85.2422096 292.21,80.82 L291.92,80.3 L281.56,88.08 L281.84,88.49 C286.73,95.64 294.93,99.74 304.31,99.74 C319.89,99.74 331.21,88.34 331.21,72.63 L331.21,47.63 L331.21,46.85 L331.26,19.83 Z" id="Shape"></path>
                    </g>
                </g>
            </g>
        </g>
        <g id="JTLY_Vertical_Light_No_BG">
            <g id="J-Couple" transform="translate(113.000000, 13.000000)">
                <g id="Plain-Shadowed">
                    <path d="M54.68,121.14 C49.7521642,126.94797 42.5168207,130.291299 34.9,130.28 L35,130.28 C28.9365722,130.269443 23.6702193,126.105276 22.261728,120.207698 C20.8532367,114.310121 23.6695559,108.215606 29.0738502,105.466266 C34.4781444,102.716926 41.062454,104.029035 45,108.64 L45,108.64 L68.44,138.91 C77.6813014,150.625846 93.3342866,155.19428 107.426713,150.288546 C121.519139,145.382811 130.951585,132.081853 130.92,117.16 L130.92,69 C130.92,49.6562266 115.238773,33.975 95.895,33.975 C76.5512266,33.975 60.87,49.6562266 60.87,69 L60.87,93.53 L80.6,118.82 C82.1032812,114.095928 82.8656548,109.167487 82.86,104.21 L82.79,69 C82.558765,64.168442 85.0047593,59.6015736 89.1547162,57.1165623 C93.304673,54.631551 98.485327,54.631551 102.635284,57.1165623 C106.785241,59.6015736 109.231235,64.168442 109,69 L109,117.14 C108.995074,122.817353 105.339068,127.847426 99.9404467,129.604481 C94.541825,131.361537 88.6255649,129.44689 85.28,124.86 L62.56,95.51 C52.4405775,82.6752958 34.7854813,78.5530395 20.0287233,85.5794497 C5.27196541,92.6058598 -2.65713233,108.909995 0.927459582,124.85625 C4.51205149,140.802505 18.655854,152.144827 35,152.18 L34.9,152.18 C47.53,152.18 58.08,148.24 68.44,138.9 L54.68,121.14 Z" id="Shape" fill="url(#linearGradient-1)" fill-rule="nonzero"></path>
                    <g id="Group" opacity="0.9" transform="translate(27.000000, 117.000000)" fill-rule="nonzero" fill="url(#linearGradient-2)">
                        <path d="M43.7,24.47 L24.56,0.1 L28.17,4.77 L27.68,4.13 C22.7739452,9.91023754 15.581566,13.2506006 8,13.27 C5.46213529,13.2688955 2.9800931,12.5249781 0.86,11.13 L1.22,34.52 C3.45255066,34.9651948 5.72349374,35.1896096 8,35.19 C20.6,35.19 31.13,31.19 41.47,21.91 C42.16,22.8 42.91,23.65 43.7,24.47 Z" id="Shape" opacity="0.8"></path>
                    </g>
                    <path d="M79.84,117.84 L80.61,118.84 C82.1132812,114.115928 82.8756548,109.187487 82.87,104.23 L82.87,86.46 L62.12,59.76 C61.2930986,62.770466 60.8727024,65.8780352 60.87,69 L60.87,93.53 L60.87,93.6 L60.87,93.6 L82.61,121.48 L79.84,117.84 Z" id="Shape" fill="url(#linearGradient-3)" fill-rule="nonzero" opacity="0.9"></path>
                    <circle id="Oval" fill="url(#linearGradient-4)" fill-rule="nonzero" cx="96.07" cy="13.19" r="13.19"></circle>
                    <circle id="Oval" fill="url(#linearGradient-5)" fill-rule="nonzero" cx="35.03" cy="61.78" r="13.19"></circle>
                </g>
            </g>
        </g>
    </g>
</svg>