<?xml version="1.0" encoding="UTF-8"?>
<svg width="523px" height="187px" viewBox="0 0 523 187" version="1.1" xmlns="http://www.w3.org/2000/svg" xmlns:xlink="http://www.w3.org/1999/xlink">
    <!-- Generator: Sketch 43.2 (39069) - http://www.bohemiancoding.com/sketch -->
    <title>JTLY_Hoz_Flat_White_NoBG</title>
    <desc>Created with Sketch.</desc>
    <defs></defs>
    <g id="Page-1" stroke="none" stroke-width="1" fill="none" fill-rule="evenodd">
        <g id="JTLY_Hoz_Flat_White_NoBG" fill-rule="nonzero" fill="#FFFFFF">
            <g id="Asset-1" transform="translate(-15.000000, -17.000000)">
                <g id="Horizontal" transform="translate(30.000000, 30.000000)">
                    <g id="Plain_Cut_Horizontal_gradient-link" transform="translate(0.370000, 0.280000)">
                        <g id="Plain_Cut_Horizontal_gradient">
                            <path d="M247.77,75.83 C232.19,75.83 220.88,87.23 220.88,102.93 C220.88,118.93 231.98,130.04 247.88,130.04 C263.78,130.04 275,118.9 275,102.94 C275,87.23 263.54,75.83 247.77,75.83 Z M247.88,118.23 C238.17,118.23 233.75,110.3 233.75,102.94 C233.75,95.29 238.6,87.54 247.88,87.54 C256.73,87.54 262.01,95.37 262.01,102.94 C262,110.3 257.59,118.23 247.88,118.23 L247.88,118.23 Z" id="Shape"></path>
                            <path d="M290.45,56.08 C286.79,56.08 282.85,58.43 282.85,63.6 C282.85,68.77 286.79,71.11 290.45,71.11 C294.11,71.11 298,68.76 298,63.6 C298,58.44 294.11,56.08 290.45,56.08 Z" id="Shape"></path>
                            <rect id="Rectangle-path" x="284.02" y="75.83" width="12.87" height="54.21"></rect>
                            <rect id="Rectangle-path" x="411.22" y="56.07" width="12.77" height="73.99"></rect>
                            <path d="M384.33,63.57 L371.46,63.57 L371.46,111 C371.46,123.08 377.86,130 389.04,130 L390.12,130 L390.76,130 L391,130 L391,130.06 L398.7,130.06 L398.7,118.44 L391,118.44 C386.71,118.44 384.25,115.75 384.25,111.06 L384.25,86.91 L398.7,86.91 L398.7,75.83 L384.33,75.83 L384.33,63.57 Z" id="Shape"></path>
                            <path d="M335.38,75.83 C319.8,75.83 308.48,87.22 308.48,102.93 L308.48,130 L321.35,130 L321.35,102.94 C321.35,95.29 326.2,87.54 335.48,87.54 C344.33,87.54 349.61,95.37 349.61,102.94 L349.61,130.07 L362.48,130.07 L362.48,102.94 L362.59,102.94 L362.59,102.41 C362.33,87 350.89,75.83 335.38,75.83 Z" id="Shape"></path>
                            <path d="M198.54,56.08 L198.54,102 L198.4,102 L198.4,102.54 L198.4,103 C198.4,110.37 193.98,118.29 184.27,118.29 C174.56,118.29 170.14,110.36 170.14,103 L170.14,102.54 L170.14,102 L157.32,102 L157.32,102.51 L157.32,103 C157.32,119 168.42,130.11 184.32,130.11 C200.22,130.11 211.4,118.92 211.4,103 L211.4,102.08 L211.4,56.08 L198.54,56.08 Z" id="Shape"></path>
                            <path d="M488.27,75.83 L475.4,75.83 L475.4,102.83 C475.4,110.48 470.54,118.23 461.27,118.23 C452.42,118.23 447.13,110.4 447.13,102.83 L447.13,75.83 L434.13,75.83 L434.13,102.83 C434.13,118.54 445.58,129.94 461.34,129.94 C466.238891,130.008177 471.068736,128.780017 475.34,126.38 L475.34,126.38 L475.34,128.65 C475.34,136.3 470.48,144.04 461.21,144.04 C456.189794,144.011913 451.586409,141.24221 449.21,136.82 L448.92,136.3 L438.56,144.08 L438.84,144.49 C443.73,151.64 451.93,155.74 461.31,155.74 C476.89,155.74 488.21,144.34 488.21,128.63 L488.21,103.63 L488.21,102.85 L488.27,75.83 Z" id="Shape"></path>
                            <g id="plaine_white_cut">
                                <g id="Plain-cut">
                                    <circle id="Oval" cx="96.07" cy="13.19" r="13.19"></circle>
                                    <circle id="Oval" cx="35.03" cy="61.78" r="13.19"></circle>
                                    <path d="M95.9,34 C76.5700338,34 60.9,49.6700338 60.9,69 L60.9,80.94 C64.6295065,83.1513768 67.9180927,86.0331277 70.6,89.44 L82.45,104.74 C82.7463718,102.582604 82.8967139,100.407656 82.9,98.23 L82.79,69 C83.1247345,62.0058624 88.8928569,56.5071961 95.895,56.5071961 C102.897143,56.5071961 108.665265,62.0058624 109,69 L109,117.14 C108.995074,122.817353 105.339068,127.847426 99.9404467,129.604481 C94.541825,131.361537 88.6255649,129.44689 85.28,124.86 L62.56,95.51 C52.4405775,82.6752958 34.7854813,78.5530395 20.0287233,85.5794497 C5.27196541,92.6058598 -2.65713233,108.909995 0.927459582,124.85625 C4.51205149,140.802505 18.655854,152.144827 35,152.18 C44.2025289,152.34219 53.2421139,149.740043 60.95,144.71 L47.25,127.18 C43.4847831,129.206549 39.2759509,130.268206 35,130.27 C28.9365722,130.259443 23.6702193,126.095276 22.261728,120.197698 C20.8532367,114.300121 23.6695559,108.205606 29.0738502,105.456266 C34.4781444,102.706926 41.062454,104.019035 45,108.63 L45,108.63 L68.44,138.89 C77.6813014,150.605846 93.3342866,155.17428 107.426713,150.268546 C121.519139,145.362811 130.951585,132.061853 130.92,117.14 L130.92,69 C130.920002,59.7139566 127.229767,50.8085374 120.661667,44.2441889 C114.093568,37.6798404 105.186042,33.9946937 95.9,34 L95.9,34 Z" id="Shape"></path>
                                </g>
                            </g>
                        </g>
                    </g>
                </g>
            </g>
        </g>
    </g>
</svg>